{
    "asset" : {
        "generator" : "Khronos glTF Blender I/O v1.5.17",
        "version" : "2.0"
    },
    "scene" : 0,
    "scenes" : [
        {
            "name" : "Scene",
            "nodes" : [
                0
            ]
        }
    ],
    "nodes" : [
        {
            "mesh" : 0,
            "name" : "10868_birthday-cake_v3",
            "rotation" : [
                0,
                0,
                0,
                -1
            ],
            "scale" : [
                0.3604469299316406,
                0.3604469299316406,
                0.3604469299316406
            ]
        }
    ],
    "materials" : [
        {
            "doubleSided" : true,
            "name" : "white_candy",
            "pbrMetallicRoughness" : {
                "metallicFactor" : 0,
                "roughnessFactor" : 0.820494532585144
            }
        },
        {
            "doubleSided" : true,
            "name" : "light_red_candy",
            "pbrMetallicRoughness" : {
                "baseColorFactor" : [
                    1,
                    0.5254999995231628,
                    0.5254999995231628,
                    1
                ],
                "metallicFactor" : 0,
                "roughnessFactor" : 0.820494532585144
            }
        },
        {
            "doubleSided" : true,
            "name" : "light_blue_candy",
            "pbrMetallicRoughness" : {
                "baseColorFactor" : [
                    0.18833370506763458,
                    1,
                    0.21748967468738556,
                    1
                ],
                "metallicFactor" : 0,
                "roughnessFactor" : 0.820494532585144
            }
        },
        {
            "doubleSided" : true,
            "name" : "24___Default",
            "pbrMetallicRoughness" : {
                "baseColorTexture" : {
                    "index" : 0
                },
                "metallicFactor" : 0,
                "roughnessFactor" : 0.8945907354354858
            }
        },
        {
            "doubleSided" : true,
            "name" : "red_candy",
            "pbrMetallicRoughness" : {
                "baseColorFactor" : [
                    0.8383696675300598,
                    1,
                    0.4422471523284912,
                    1
                ],
                "metallicFactor" : 0,
                "roughnessFactor" : 0.820494532585144
            }
        },
        {
            "doubleSided" : true,
            "name" : "blue_candy",
            "pbrMetallicRoughness" : {
                "baseColorFactor" : [
                    0,
                    0.4000000059604645,
                    1,
                    1
                ],
                "metallicFactor" : 0,
                "roughnessFactor" : 0.820494532585144
            }
        },
        {
            "doubleSided" : true,
            "name" : "candle_red",
            "pbrMetallicRoughness" : {
                "baseColorFactor" : [
                    1,
                    0.33730000257492065,
                    0.33730000257492065,
                    1
                ],
                "metallicFactor" : 0,
                "roughnessFactor" : 0.9057191014289856
            }
        },
        {
            "doubleSided" : true,
            "name" : "candle_white",
            "pbrMetallicRoughness" : {
                "metallicFactor" : 0,
                "roughnessFactor" : 0.9057191014289856
            }
        },
        {
            "doubleSided" : true,
            "name" : "black_candy",
            "pbrMetallicRoughness" : {
                "baseColorFactor" : [
                    0,
                    0,
                    0,
                    1
                ],
                "metallicFactor" : 0,
                "roughnessFactor" : 0.820494532585144
            }
        },
        {
            "doubleSided" : true,
            "name" : "candle_blue",
            "pbrMetallicRoughness" : {
                "baseColorFactor" : [
                    0.29019999504089355,
                    0.29019999504089355,
                    1,
                    1
                ],
                "metallicFactor" : 0,
                "roughnessFactor" : 0.9057191014289856
            }
        },
        {
            "doubleSided" : true,
            "name" : "candle_yellow",
            "pbrMetallicRoughness" : {
                "baseColorFactor" : [
                    1,
                    0.8666999936103821,
                    0.33730000257492065,
                    1
                ],
                "metallicFactor" : 0,
                "roughnessFactor" : 0.9057191014289856
            }
        }
    ],
    "meshes" : [
        {
            "name" : "10868_birthday-cake_v3",
            "primitives" : [
                {
                    "attributes" : {
                        "POSITION" : 0,
                        "NORMAL" : 1,
                        "TEXCOORD_0" : 2
                    },
                    "indices" : 3,
                    "material" : 0
                },
                {
                    "attributes" : {
                        "POSITION" : 4,
                        "NORMAL" : 5,
                        "TEXCOORD_0" : 6
                    },
                    "indices" : 7,
                    "material" : 1
                },
                {
                    "attributes" : {
                        "POSITION" : 8,
                        "NORMAL" : 9,
                        "TEXCOORD_0" : 10
                    },
                    "indices" : 11,
                    "material" : 2
                },
                {
                    "attributes" : {
                        "POSITION" : 12,
                        "NORMAL" : 13,
                        "TEXCOORD_0" : 14
                    },
                    "indices" : 15,
                    "material" : 3
                },
                {
                    "attributes" : {
                        "POSITION" : 16,
                        "NORMAL" : 17,
                        "TEXCOORD_0" : 18
                    },
                    "indices" : 19,
                    "material" : 4
                },
                {
                    "attributes" : {
                        "POSITION" : 20,
                        "NORMAL" : 21,
                        "TEXCOORD_0" : 22
                    },
                    "indices" : 23,
                    "material" : 5
                },
                {
                    "attributes" : {
                        "POSITION" : 24,
                        "NORMAL" : 25,
                        "TEXCOORD_0" : 26
                    },
                    "indices" : 27,
                    "material" : 6
                },
                {
                    "attributes" : {
                        "POSITION" : 28,
                        "NORMAL" : 29,
                        "TEXCOORD_0" : 30
                    },
                    "indices" : 31,
                    "material" : 7
                },
                {
                    "attributes" : {
                        "POSITION" : 32,
                        "NORMAL" : 33,
                        "TEXCOORD_0" : 34
                    },
                    "indices" : 35,
                    "material" : 8
                },
                {
                    "attributes" : {
                        "POSITION" : 36,
                        "NORMAL" : 37,
                        "TEXCOORD_0" : 38
                    },
                    "indices" : 39,
                    "material" : 9
                },
                {
                    "attributes" : {
                        "POSITION" : 40,
                        "NORMAL" : 41,
                        "TEXCOORD_0" : 42
                    },
                    "indices" : 43,
                    "material" : 10
                }
            ]
        }
    ],
    "textures" : [
        {
            "sampler" : 0,
            "source" : 0
        }
    ],
    "images" : [
        {
            "bufferView" : 16,
            "mimeType" : "image/jpeg",
            "name" : "candy_text_ornament"
        }
    ],
    "accessors" : [
        {
            "bufferView" : 0,
            "componentType" : 5126,
            "count" : 10848,
            "max" : [
                8.274700164794922,
                6.839000225067139,
                8.32960033416748
            ],
            "min" : [
                -8.396200180053711,
                -0.23739999532699585,
                -8.32960033416748
            ],
            "type" : "VEC3"
        },
        {
            "bufferView" : 1,
            "componentType" : 5126,
            "count" : 10848,
            "type" : "VEC3"
        },
        {
            "bufferView" : 2,
            "componentType" : 5126,
            "count" : 10848,
            "type" : "VEC2"
        },
        {
            "bufferView" : 3,
            "componentType" : 5123,
            "count" : 37404,
            "type" : "SCALAR"
        },
        {
            "bufferView" : 4,
            "componentType" : 5126,
            "count" : 984,
            "max" : [
                7.973299980163574,
                5.622799873352051,
                7.973499774932861
            ],
            "min" : [
                -7.973299980163574,
                0.029200000688433647,
                -7.973499774932861
            ],
            "type" : "VEC3"
        },
        {
            "bufferView" : 5,
            "componentType" : 5126,
            "count" : 984,
            "type" : "VEC3"
        },
        {
            "bufferView" : 6,
            "componentType" : 5126,
            "count" : 984,
            "type" : "VEC2"
        },
        {
            "bufferView" : 7,
            "componentType" : 5123,
            "count" : 3456,
            "type" : "SCALAR"
        },
        {
            "bufferView" : 8,
            "componentType" : 5126,
            "count" : 978,
            "max" : [
                7.911900043487549,
                5.622799873352051,
                7.914700031280518
            ],
            "min" : [
                -7.911900043487549,
                0.029200000688433647,
                -7.914700031280518
            ],
            "type" : "VEC3"
        },
        {
            "bufferView" : 9,
            "componentType" : 5126,
            "count" : 978,
            "type" : "VEC3"
        },
        {
            "bufferView" : 10,
            "componentType" : 5126,
            "count" : 978,
            "type" : "VEC2"
        },
        {
            "bufferView" : 11,
            "componentType" : 5123,
            "count" : 3456,
            "type" : "SCALAR"
        },
        {
            "bufferView" : 12,
            "componentType" : 5126,
            "count" : 73,
            "max" : [
                7.39769983291626,
                5.6519999504089355,
                7.39870023727417
            ],
            "min" : [
                -7.39769983291626,
                5.650599956512451,
                -7.39870023727417
            ],
            "type" : "VEC3"
        },
        {
            "bufferView" : 13,
            "componentType" : 5126,
            "count" : 73,
            "type" : "VEC3"
        },
        {
            "bufferView" : 14,
            "componentType" : 5126,
            "count" : 73,
            "type" : "VEC2"
        },
        {
            "bufferView" : 15,
            "componentType" : 5123,
            "count" : 324,
            "type" : "SCALAR"
        },
        {
            "bufferView" : 17,
            "componentType" : 5126,
            "count" : 6518,
            "max" : [
                8.274700164794922,
                6.844299793243408,
                8.329299926757812
            ],
            "min" : [
                -8.396200180053711,
                -0.23739999532699585,
                -8.32960033416748
            ],
            "type" : "VEC3"
        },
        {
            "bufferView" : 18,
            "componentType" : 5126,
            "count" : 6518,
            "type" : "VEC3"
        },
        {
            "bufferView" : 19,
            "componentType" : 5126,
            "count" : 6518,
            "type" : "VEC2"
        },
        {
            "bufferView" : 20,
            "componentType" : 5123,
            "count" : 23616,
            "type" : "SCALAR"
        },
        {
            "bufferView" : 21,
            "componentType" : 5126,
            "count" : 4982,
            "max" : [
                7.433899879455566,
                6.846799850463867,
                7.3190999031066895
            ],
            "min" : [
                -7.42110013961792,
                5.645500183105469,
                -7.529300212860107
            ],
            "type" : "VEC3"
        },
        {
            "bufferView" : 22,
            "componentType" : 5126,
            "count" : 4982,
            "type" : "VEC3"
        },
        {
            "bufferView" : 23,
            "componentType" : 5126,
            "count" : 4982,
            "type" : "VEC2"
        },
        {
            "bufferView" : 24,
            "componentType" : 5123,
            "count" : 19584,
            "type" : "SCALAR"
        },
        {
            "bufferView" : 25,
            "componentType" : 5126,
            "count" : 5720,
            "max" : [
                4.41349983215332,
                8.737799644470215,
                -1.9400999546051025
            ],
            "min" : [
                -3.1447999477386475,
                5.83650016784668,
                -4.813600063323975
            ],
            "type" : "VEC3"
        },
        {
            "bufferView" : 26,
            "componentType" : 5126,
            "count" : 5720,
            "type" : "VEC3"
        },
        {
            "bufferView" : 27,
            "componentType" : 5126,
            "count" : 5720,
            "type" : "VEC2"
        },
        {
            "bufferView" : 28,
            "componentType" : 5123,
            "count" : 20160,
            "type" : "SCALAR"
        },
        {
            "bufferView" : 29,
            "componentType" : 5126,
            "count" : 5174,
            "max" : [
                4.391200065612793,
                8.705900192260742,
                -0.29179999232292175
            ],
            "min" : [
                -4.5278000831604,
                5.824900150299072,
                -4.789299964904785
            ],
            "type" : "VEC3"
        },
        {
            "bufferView" : 30,
            "componentType" : 5126,
            "count" : 5174,
            "type" : "VEC3"
        },
        {
            "bufferView" : 31,
            "componentType" : 5126,
            "count" : 5174,
            "type" : "VEC2"
        },
        {
            "bufferView" : 32,
            "componentType" : 5123,
            "count" : 17424,
            "type" : "SCALAR"
        },
        {
            "bufferView" : 33,
            "componentType" : 5126,
            "count" : 3320,
            "max" : [
                4.28000020980835,
                8.856200218200684,
                -0.32839998602867126
            ],
            "min" : [
                -4.563000202178955,
                5.408899784088135,
                -4.9293999671936035
            ],
            "type" : "VEC3"
        },
        {
            "bufferView" : 34,
            "componentType" : 5126,
            "count" : 3320,
            "type" : "VEC3"
        },
        {
            "bufferView" : 35,
            "componentType" : 5126,
            "count" : 3320,
            "type" : "VEC2"
        },
        {
            "bufferView" : 36,
            "componentType" : 5123,
            "count" : 12408,
            "type" : "SCALAR"
        },
        {
            "bufferView" : 37,
            "componentType" : 5126,
            "count" : 3433,
            "max" : [
                -0.8137000203132629,
                8.734600067138672,
                -2.0120999813079834
            ],
            "min" : [
                -4.547500133514404,
                5.839700222015381,
                -3.3896000385284424
            ],
            "type" : "VEC3"
        },
        {
            "bufferView" : 38,
            "componentType" : 5126,
            "count" : 3433,
            "type" : "VEC3"
        },
        {
            "bufferView" : 39,
            "componentType" : 5126,
            "count" : 3433,
            "type" : "VEC2"
        },
        {
            "bufferView" : 40,
            "componentType" : 5123,
            "count" : 12096,
            "type" : "SCALAR"
        },
        {
            "bufferView" : 41,
            "componentType" : 5126,
            "count" : 3441,
            "max" : [
                3.0390000343322754,
                8.736200332641602,
                -0.26350000500679016
            ],
            "min" : [
                0.16699999570846558,
                6.030900001525879,
                -3.432300090789795
            ],
            "type" : "VEC3"
        },
        {
            "bufferView" : 42,
            "componentType" : 5126,
            "count" : 3441,
            "type" : "VEC3"
        },
        {
            "bufferView" : 43,
            "componentType" : 5126,
            "count" : 3441,
            "type" : "VEC2"
        },
        {
            "bufferView" : 44,
            "componentType" : 5123,
            "count" : 12096,
            "type" : "SCALAR"
        }
    ],
    "bufferViews" : [
        {
            "buffer" : 0,
            "byteLength" : 130176,
            "byteOffset" : 0
        },
        {
            "buffer" : 0,
            "byteLength" : 130176,
            "byteOffset" : 130176
        },
        {
            "buffer" : 0,
            "byteLength" : 86784,
            "byteOffset" : 260352
        },
        {
            "buffer" : 0,
            "byteLength" : 74808,
            "byteOffset" : 347136
        },
        {
            "buffer" : 0,
            "byteLength" : 11808,
            "byteOffset" : 421944
        },
        {
            "buffer" : 0,
            "byteLength" : 11808,
            "byteOffset" : 433752
        },
        {
            "buffer" : 0,
            "byteLength" : 7872,
            "byteOffset" : 445560
        },
        {
            "buffer" : 0,
            "byteLength" : 6912,
            "byteOffset" : 453432
        },
        {
            "buffer" : 0,
            "byteLength" : 11736,
            "byteOffset" : 460344
        },
        {
            "buffer" : 0,
            "byteLength" : 11736,
            "byteOffset" : 472080
        },
        {
            "buffer" : 0,
            "byteLength" : 7824,
            "byteOffset" : 483816
        },
        {
            "buffer" : 0,
            "byteLength" : 6912,
            "byteOffset" : 491640
        },
        {
            "buffer" : 0,
            "byteLength" : 876,
            "byteOffset" : 498552
        },
        {
            "buffer" : 0,
            "byteLength" : 876,
            "byteOffset" : 499428
        },
        {
            "buffer" : 0,
            "byteLength" : 584,
            "byteOffset" : 500304
        },
        {
            "buffer" : 0,
            "byteLength" : 648,
            "byteOffset" : 500888
        },
        {
            "buffer" : 0,
            "byteLength" : 607457,
            "byteOffset" : 501536
        },
        {
            "buffer" : 0,
            "byteLength" : 78216,
            "byteOffset" : 1108996
        },
        {
            "buffer" : 0,
            "byteLength" : 78216,
            "byteOffset" : 1187212
        },
        {
            "buffer" : 0,
            "byteLength" : 52144,
            "byteOffset" : 1265428
        },
        {
            "buffer" : 0,
            "byteLength" : 47232,
            "byteOffset" : 1317572
        },
        {
            "buffer" : 0,
            "byteLength" : 59784,
            "byteOffset" : 1364804
        },
        {
            "buffer" : 0,
            "byteLength" : 59784,
            "byteOffset" : 1424588
        },
        {
            "buffer" : 0,
            "byteLength" : 39856,
            "byteOffset" : 1484372
        },
        {
            "buffer" : 0,
            "byteLength" : 39168,
            "byteOffset" : 1524228
        },
        {
            "buffer" : 0,
            "byteLength" : 68640,
            "byteOffset" : 1563396
        },
        {
            "buffer" : 0,
            "byteLength" : 68640,
            "byteOffset" : 1632036
        },
        {
            "buffer" : 0,
            "byteLength" : 45760,
            "byteOffset" : 1700676
        },
        {
            "buffer" : 0,
            "byteLength" : 40320,
            "byteOffset" : 1746436
        },
        {
            "buffer" : 0,
            "byteLength" : 62088,
            "byteOffset" : 1786756
        },
        {
            "buffer" : 0,
            "byteLength" : 62088,
            "byteOffset" : 1848844
        },
        {
            "buffer" : 0,
            "byteLength" : 41392,
            "byteOffset" : 1910932
        },
        {
            "buffer" : 0,
            "byteLength" : 34848,
            "byteOffset" : 1952324
        },
        {
            "buffer" : 0,
            "byteLength" : 39840,
            "byteOffset" : 1987172
        },
        {
            "buffer" : 0,
            "byteLength" : 39840,
            "byteOffset" : 2027012
        },
        {
            "buffer" : 0,
            "byteLength" : 26560,
            "byteOffset" : 2066852
        },
        {
            "buffer" : 0,
            "byteLength" : 24816,
            "byteOffset" : 2093412
        },
        {
            "buffer" : 0,
            "byteLength" : 41196,
            "byteOffset" : 2118228
        },
        {
            "buffer" : 0,
            "byteLength" : 41196,
            "byteOffset" : 2159424
        },
        {
            "buffer" : 0,
            "byteLength" : 27464,
            "byteOffset" : 2200620
        },
        {
            "buffer" : 0,
            "byteLength" : 24192,
            "byteOffset" : 2228084
        },
        {
            "buffer" : 0,
            "byteLength" : 41292,
            "byteOffset" : 2252276
        },
        {
            "buffer" : 0,
            "byteLength" : 41292,
            "byteOffset" : 2293568
        },
        {
            "buffer" : 0,
            "byteLength" : 27528,
            "byteOffset" : 2334860
        },
        {
            "buffer" : 0,
            "byteLength" : 24192,
            "byteOffset" : 2362388
        }
    ],
    "samplers" : [
        {
            "magFilter" : 9729,
            "minFilter" : 9987
        }
    ],
    "buffers" : [
        {
            "byteLength" : 2386580,
            "uri" : "data:application/octet-stream;base64,"
        }
    ]
}
